<svg xmlns="http://www.w3.org/2000/svg" viewBox="0 0 1200 630" width="1200" height="630">
  <defs>
    <linearGradient id="bg" x1="0" y1="0" x2="1" y2="1">
      <stop offset="0" stop-color="#0a0a0c"/>
      <stop offset="1" stop-color="#14141a"/>
    </linearGradient>
    <linearGradient id="orange" x1="0" y1="0" x2="1" y2="0">
      <stop offset="0" stop-color="#ff4d1a"/>
      <stop offset="1" stop-color="#ff7a4a"/>
    </linearGradient>
    <linearGradient id="curveGrad" x1="0" y1="0" x2="1" y2="0">
      <stop offset="0" stop-color="#ff4d1a" stop-opacity="0.15"/>
      <stop offset="1" stop-color="#ff7a4a" stop-opacity="0.9"/>
    </linearGradient>
  </defs>
  <rect width="1200" height="630" fill="url(#bg)"/>
  <g stroke="#22252f" stroke-width="1" opacity="0.6">
    <line x1="0" y1="157" x2="1200" y2="157"/>
    <line x1="0" y1="315" x2="1200" y2="315"/>
    <line x1="0" y1="472" x2="1200" y2="472"/>
    <line x1="300" y1="0" x2="300" y2="630"/>
    <line x1="600" y1="0" x2="600" y2="630"/>
    <line x1="900" y1="0" x2="900" y2="630"/>
  </g>
  <path d="M0 560 C200 545 380 510 560 420 C740 330 880 200 1200 90" stroke="url(#curveGrad)" stroke-width="4" fill="none" stroke-linecap="round" opacity="0.85"/>
  <circle cx="1200" cy="90" r="8" fill="#ff4d1a"/>
  <g transform="translate(80,80)">
    <text x="0" y="20" font-family="'JetBrains Mono', monospace" font-size="15" fill="#ff4d1a" letter-spacing="4">GROWTH · MARKETING · 2026</text>
  </g>
  <g transform="translate(80,220)">
    <text x="0" y="0" font-family="'Inter', system-ui, sans-serif" font-size="112" font-weight="800" fill="#f5f5f7" letter-spacing="-4">Harte</text>
    <text x="0" y="120" font-family="'Instrument Serif', Georgia, serif" font-style="italic" font-size="112" fill="#ff4d1a" letter-spacing="-2">Growth<tspan fill="#f5f5f7">.</tspan></text>
  </g>
  <g transform="translate(80,510)">
    <text x="0" y="0" font-family="'Inter', system-ui, sans-serif" font-size="26" font-weight="500" fill="#a3a5b0" letter-spacing="-.5">Groeimarketing voor bedrijven die door willen groeien.</text>
    <text x="0" y="60" font-family="'JetBrains Mono', monospace" font-size="16" fill="#6d6f7a" letter-spacing="2">hartegrowth.eu   ·   NL / ES / EN</text>
  </g>
</svg>
